:SAMPLES-PER-SECOND 30
:FULLY-SPECIFIED
:DEGREES
335
root  59.5514 39.5846 8.56449 174.104 44.1411 171.278
RightUpLeg  -8.81953 -13.5301 -11.1892
RightLeg  2.90632 -4.80922 1.75037
RightFoot  7.95391 0.0461262 0.0477872
RightToes  5.23868e-010 0 -3.6325e-017
Spine  8.96075 -4.40061 1.62304
Spine1  11.8842 -4.79777 0.706767
HEad  -7.56484 8.04789 -8.98155
LeftShoulder1  1.6519 -2.0699 -23.3738
LeftArm  22.175 -35.9903 -70.6699
LeftForeArm  13.9959 -33.1582 -6.55022
LeftHand  -0.261731 0.737195 6.50811
RightShoulder  0.0451702 -3.3132 20.7321
RightArm  -28.8712 10.628 30.7452
RightForeArm  -5.21395 52.8446 15.3259
RightHand  -3.27763 14.3079 -19.5222
LeftUpLeg  1.46109 15.8311 5.09211
LeftLeg  10.5105 15.3999 0.388738
LeftFoot  -5.75013 0.137411 -2.12033
LeftToes  -4.9204e-010 1.02043e-011 -1.81609e-011
336
root  59.1541 39.5819 8.51725 174.536 40.17 171.94
RightUpLeg  -7.3797 -14.3401 -12.4885
RightLeg  1.93221 -7.553 1.98972
RightFoot  8.44428 -0.0823176 0.805947
RightToes  5.23868e-010 0 -3.6325e-017
Spine  8.29657 -4.74752 1.48784
Spine1  12.2665 -5.18651 0.60079
HEad  -7.44077 8.93699 -8.99896
LeftShoulder1  1.5252 -1.41561 -24.7964
LeftArm  27.4941 -31.2376 -69.4233
LeftForeArm  14.8808 -30.4903 -5.73397
LeftHand  -0.278289 0.231339 6.30304
RightShoulder  -0.0988152 -3.81714 22.6534
RightArm  -24.0501 4.1667 31.5379
RightForeArm  -4.93427 51.1581 14.3959
RightHand  -2.66968 12.5319 -17.4678
LeftUpLeg  2.51638 15.8042 5.83856
LeftLeg  9.18738 22.7214 -0.260283
LeftFoot  -4.43081 0.101751 -1.23732
LeftToes  -4.9204e-010 1.02043e-011 -1.81609e-011
337
root  58.6681 39.5272 8.46046 175.169 36.0308 172.812
RightUpLeg  -6.19201 -15.327 -13.8012
RightLeg  1.43299 -10.4211 2.52231
RightFoot  8.7812 -0.182059 1.3661
RightToes  5.23868e-010 0 -3.6325e-017
Spine  7.82357 -4.95593 1.19522
Spine1  12.2574 -5.61604 1.16984
HEad  -7.3619 8.76542 -8.75837
LeftShoulder1  1.35068 -0.665673 -26.2652
LeftArm  33.0429 -27.3979 -68.5771
LeftForeArm  13.1864 -24.8987 -5.31296
LeftHand  -0.202147 1.16875 5.40023
RightShoulder  -0.217865 -4.19169 24.2927
RightArm  -18.0693 -0.52247 32.1196
RightForeArm  -6.15698 46.2642 12.1448
RightHand  -1.73113 9.70382 -13.6108
LeftUpLeg  2.95155 15.7931 6.17982
LeftLeg  8.4228 29.1205 -0.732182
LeftFoot  -4.01854 0.0549657 -0.48167
LeftToes  -4.9204e-010 1.02043e-011 -1.81609e-011
338
root  58.1393 39.4303 8.37465 176.104 32.4679 174.107
RightUpLeg  -5.48032 -15.6878 -14.4155
RightLeg  1.35428 -13.5074 2.68907
RightFoot  9.2228 -0.313717 2.07833
RightToes  5.23868e-010 0 -3.6325e-017
Spine  6.82086 -4.7446 1.28171
Spine1  12.7335 -5.6269 1.8675
HEad  -7.11136 7.92998 -8.25251
LeftShoulder1  1.23457 -0.112546 -27.9964
LeftArm  27.4786 -24.1369 -67.049
LeftForeArm  19.4946 -16.1271 -8.30743
LeftHand  -0.0779001 3.17138 3.31667
RightShoulder  -0.268857 -4.33575 24.973
RightArm  -11.8983 -3.90061 34.2179
RightForeArm  -7.84469 38.7729 9.49571
RightHand  -1.2346 7.65612 -11.3561
LeftUpLeg  3.19116 15.8074 6.60887
LeftLeg  7.68769 32.7956 -1.44738
LeftFoot  -3.6655 0.0715434 -0.704752
LeftToes  -4.9204e-010 1.02043e-011 -1.81609e-011
339
root  57.5704 39.3437 8.25354 176.348 29.225 175.296
RightUpLeg  -3.8536 -16.1795 -15.2938
RightLeg  0.723292 -15.9711 3.18867
RightFoot  9.84386 -0.441053 2.71637
RightToes  5.23868e-010 0 -3.6325e-017
Spine  6.24709 -4.42998 1.1952
Spine1  13.1415 -5.36331 1.88123
HEad  -6.32595 6.78602 -6.9672
LeftShoulder1  1.22072 -0.00614156 -28.7213
LeftArm  6.58363 -20.2641 -64.3421
LeftForeArm  34.5335 -5.51466 -11.0315
LeftHand  -0.015414 6.34046 1.88709
RightShoulder  -0.374028 -4.63774 26.0048
RightArm  -3.13846 -4.14933 37.0328
RightForeArm  -11.9354 27.6699 6.54406
RightHand  -1.10343 6.96348 -10.5779
LeftUpLeg  3.56732 14.3335 6.78596
LeftLeg  7.15799 34.2511 -1.74743
LeftFoot  -2.85189 0.207838 -2.59848
LeftToes  -4.9204e-010 1.02043e-011 -1.81609e-011
340
root  56.9212 39.2485 8.17063 176.175 25.3429 175.487
RightUpLeg  -2.46437 -17.4577 -17.3619
RightLeg  0.941941 -18.1646 3.56784
RightFoot  9.85315 -0.652313 3.86326
RightToes  5.23868e-010 0 -3.6325e-017
Spine  6.22238 -4.29344 -0.351061
Spine1  12.8893 -5.51711 2.50143
HEad  -5.87633 6.28694 -5.64784
LeftShoulder1  1.08078 0.510292 -30.006
LeftArm  -3.61615 -18.0111 -61.9199
LeftForeArm  35.7025 4.70494 -7.21387
LeftHand  -0.0293318 6.16013 1.44916
RightShoulder  -0.417705 -4.76022 26.289
RightArm  6.35786 -2.84558 41.0086
RightForeArm  -10.2159 16.0776 4.67034
RightHand  -0.590817 3.74361 -7.81011
LeftUpLeg  2.59403 13.5069 5.85012
LeftLeg  7.94929 31.0168 -1.57332
LeftFoot  -3.35644 0.29916 -3.97657
LeftToes  -4.9204e-010 1.02043e-011 -1.81609e-011
341
root  56.2171 39.1129 8.06482 174.781 21.6526 174.335
RightUpLeg  -1.72333 -19.7248 -20.819
RightLeg  4.14831 -18.6156 2.33107
RightFoot  8.44031 -0.941716 5.71769
RightToes  5.23868e-010 0 -3.6325e-017
Spine  7.58607 -4.0243 -2.05252
Spine1  11.9591 -5.12665 1.8757
HEad  -5.58355 4.27739 -4.1009
LeftShoulder1  1.0568 0.572924 -29.9722
LeftArm  -5.75345 -14.0816 -57.0102
LeftForeArm  29.9549 6.8743 -6.18961
LeftHand  -0.0318935 5.56238 3.15605
RightShoulder  -0.488902 -4.93079 27.4167
RightArm  7.41728 -3.44474 44.4361
RightForeArm  -4.52702 8.34495 5.32539
RightHand  -0.467713 2.28096 -7.28725
LeftUpLeg  1.82066 13.2251 3.27925
LeftLeg  10.0368 27.8374 -0.443779
LeftFoot  -4.29917 0.184737 -2.58067
LeftToes  -4.9204e-010 1.02043e-011 -1.81609e-011
342
root  55.5633 38.9728 7.8963 174.307 18.2491 173.994
RightUpLeg  -1.82911 -21.9426 -22.5668
RightLeg  7.69914 -17.7397 -0.298175
RightFoot  6.35029 -1.01172 6.84045
RightToes  5.23868e-010 0 -3.6325e-017
Spine  6.78831 -3.37381 -1.72132
Spine1  13.1609 -4.08617 0.266215
HEad  -6.31946 1.59395 -2.95344
LeftShoulder1  0.979358 0.804223 -30.2273
LeftArm  -4.78799 -10.7848 -50.8355
LeftForeArm  27.8335 5.15924 -7.6009
LeftHand  -0.0218596 9.31661 0.660699
RightShoulder  -0.548101 -5.09134 27.7498
RightArm  3.91047 -7.035 48.3328
RightForeArm  -2.42599 6.40593 4.12083
RightHand  -0.543088 2.12225 -8.56735
LeftUpLeg  0.644879 12.5354 1.30276
LeftLeg  12.3083 25.5567 0.718502
LeftFoot  -5.64793 0.122464 -1.78842
LeftToes  -4.9204e-010 1.02043e-011 -1.81609e-011
343
root  54.9426 38.8398 7.72015 174.675 15.7954 174.143
RightUpLeg  -3.74647 -21.0686 -22.5036
RightLeg  11.8501 -13.7582 -2.81675
RightFoot  2.58582 -0.825725 6.776
RightToes  5.23868e-010 0 -3.6325e-017
Spine  6.1713 -2.5775 -0.803184
Spine1  13.024 -2.86797 -1.32965
HEad  -6.19041 -0.0713586 -2.60636
LeftShoulder1  0.60886 1.86299 -31.0359
LeftArm  -4.05914 -8.50282 -44.0296
LeftForeArm  27.9013 2.72111 -8.67067
LeftHand  -0.0367025 8.97563 0.396856
RightShoulder  -0.624451 -5.27065 28.5512
RightArm  2.372 -10.0023 50.0435
RightForeArm  -5.40224 6.8981 3.74888
RightHand  -0.581661 2.04821 -9.24761
LeftUpLeg  -0.82772 11.8337 0.0466426
LeftLeg  14.3347 23.8605 1.33848
LeftFoot  -7.4273 0.0945919 -1.46456
LeftToes  -4.9204e-010 1.02043e-011 -1.81609e-011
344
root  54.3383 38.8368 7.40897 173.622 14.8386 173.806
RightUpLeg  -6.04181 -14.8634 -22.5255
RightLeg  17.8301 -6.61368 -2.64348
RightFoot  0.665022 -0.267057 2.67311
RightToes  5.23868e-010 0 -3.6325e-017
Spine  6.27625 -1.54448 -0.309946
Spine1  13.4096 -1.42936 -2.58863
HEad  -5.6657 -0.943118 -2.52801
LeftShoulder1  0.331012 2.63096 -31.7255
LeftArm  -2.88935 -5.55353 -36.4427
LeftForeArm  25.3102 -0.637054 -9.78286
LeftHand  -0.0376809 8.06555 0.114103
RightShoulder  -0.78243 -5.64856 29.8641
RightArm  4.67847 -10.089 49.7098
RightForeArm  -4.95732 7.08256 4.60974
RightHand  -0.486414 1.62406 -8.2178
LeftUpLeg  0.881866 10.2985 -1.24644
LeftLeg  13.4827 24.4871 0.731846
LeftFoot  -8.33677 0.0756598 -0.983611
LeftToes  -4.9204e-010 1.02043e-011 -1.81609e-011
345
root  53.8203 38.7674 7.1167 173.448 11.8763 174.073
RightUpLeg  -7.49122 -11.1609 -21.9224
RightLeg  23.2055 -0.797313 -0.597614
RightFoot  -1.23915 -0.370539 4.09641
RightToes  5.23868e-010 0 -3.6325e-017
Spine  6.24395 -2.00019 -1.40955
Spine1  13.0709 -2.16173 -2.49812
HEad  -5.0007 -0.0717445 -2.7693
LeftShoulder1  0.0579368 3.34663 -31.0367
LeftArm  -2.57927 -0.432778 -30.2744
LeftForeArm  21.2446 -5.22083 -9.78402
LeftHand  -0.0347436 5.77583 -0.478358
RightShoulder  -0.754207 -5.55321 30.135
RightArm  8.11511 -8.92059 49.1815
RightForeArm  -1.34777 7.82326 5.75674
RightHand  -0.437066 1.90833 -7.13133
LeftUpLeg  0.800656 9.38033 -2.39673
LeftLeg  14.4098 22.7113 1.28326
LeftFoot  -9.47068 0.068486 -0.701023
LeftToes  -4.9204e-010 1.02043e-011 -1.81609e-011
346
root  53.3503 38.7438 6.82653 173.214 8.63653 174.569
RightUpLeg  -8.65195 -9.27707 -20.2906
RightLeg  28.1472 1.76648 0.771509
RightFoot  -2.43026 -0.384773 4.7071
RightToes  5.23868e-010 0 -3.6325e-017
Spine  6.51823 -2.35934 -2.32775
Spine1  12.7618 -2.80478 -2.15438
HEad  -4.83817 0.311653 -1.6898
LeftShoulder1  0.0958962 3.2362 -29.6659
LeftArm  -2.09438 4.07568 -25.773
LeftForeArm  14.9016 -8.80601 -8.99378
LeftHand  -0.0345341 5.59231 0.189131
RightShoulder  -0.761952 -5.58134 29.9844
RightArm  9.58276 -7.93562 49.0077
RightForeArm  2.08596 9.4095 6.06346
RightHand  -0.501461 2.21123 -7.81991
LeftUpLeg  1.24915 8.9073 -2.94227
LeftLeg  14.6679 20.2318 1.13847
LeftFoot  -10.3263 0.0636785 -0.197199
LeftToes  -4.9204e-010 1.02043e-011 -1.81609e-011
347
root  52.8955 38.7958 6.5526 173.654 5.14726 175.6
RightUpLeg  -10.5028 -8.48894 -17.4536
RightLeg  32.5149 0.93696 0.394183
RightFoot  -2.86062 -0.305556 3.85609
RightToes  5.23868e-010 0 -3.6325e-017
Spine  6.27681 -2.51281 -3.05371
Spine1  12.4459 -3.44829 -0.628615
HEad  -5.25576 -0.870392 -0.537805
LeftShoulder1  0.133382 3.12214 -28.9266
LeftArm  -2.6318 6.51877 -22.3901
LeftForeArm  9.50783 -10.6782 -7.97185
LeftHand  -0.0283432 5.15843 2.75554
RightShoulder  -0.627774 -5.26628 28.9029
RightArm  9.66305 -7.53028 48.6174
RightForeArm  2.51455 11.2808 5.71726
RightHand  -0.633009 3.31215 -8.69108
LeftUpLeg  1.2884 8.58377 -2.93038
LeftLeg  14.3266 17.13 0.706366
LeftFoot  -10.6261 0.0600598 0.550056
LeftToes  -4.9204e-010 1.02043e-011 -1.81609e-011
348
root  52.4376 38.8699 6.26617 173.842 1.45302 176.525
RightUpLeg  -11.97 -8.37905 -14.5157
RightLeg  35.3507 -0.517646 -0.634509
RightFoot  -3.1237 -0.23209 2.93525
RightToes  5.23868e-010 0 -3.6325e-017
Spine  6.76861 -2.64526 -3.6996
Spine1  11.5513 -4.02696 1.03037
HEad  -5.77025 -2.42908 0.0437385
LeftShoulder1  0.190699 2.94379 -27.8699
LeftArm  -5.42036 8.03495 -20.8807
LeftForeArm  7.54842 -11.1171 -6.74063
LeftHand  -0.0150395 5.8689 3.23977
RightShoulder  -0.63333 -5.29672 28.6037
RightArm  9.90562 -6.65936 46.9035
RightForeArm  1.38645 13.137 5.34039
RightHand  -0.569561 2.35945 -8.72205
LeftUpLeg  1.81772 8.5509 -2.74641
LeftLeg  13.5903 13.6515 -0.192292
LeftFoot  -10.667 0.0548911 1.60359
LeftToes  -4.9204e-010 1.02043e-011 -1.81609e-011
349
root  51.9835 38.8957 5.92078 174.023 -2.22365 177.091
RightUpLeg  -13.2309 -8.32379 -11.8811
RightLeg  36.1411 -0.867143 -0.929433
RightFoot  -3.36908 -0.21681 2.78128
RightToes  5.23868e-010 0 -3.6325e-017
Spine  6.88779 -2.57961 -4.44631
Spine1  11.1715 -4.39594 2.62439
HEad  -6.9715 -3.8905 1.18598
LeftShoulder1  0.152382 3.05507 -27.7659
LeftArm  -8.36933 7.25647 -19.8837
LeftForeArm  6.37093 -10.605 -5.73414
LeftHand  -0.00736701 5.95874 4.22137
RightShoulder  -0.638049 -5.33605 28.1039
RightArm  9.34648 -5.17692 44.9475
RightForeArm  -0.489643 13.6014 5.11959
RightHand  -0.599778 2.77329 -8.73926
LeftUpLeg  2.40038 8.40773 -2.94842
LeftLeg  13.0077 10.6192 -0.806583
LeftFoot  -10.9126 0.0568319 2.25883
LeftToes  -4.9204e-010 1.02043e-011 -1.81609e-011
